<svg width="0" height="0" class="hidden">
  <symbol xmlns="http://www.w3.org/2000/svg" id="github" viewBox="0 0 16 16">
    <path d="M7.999 0C3.582 0 0 3.596 0 8.032a8.031 8.031 0 0 0 5.472 7.621c.4.074.546-.174.546-.387 0-.191-.007-.696-.011-1.366-2.225.485-2.695-1.077-2.695-1.077-.363-.928-.888-1.175-.888-1.175-.727-.498.054-.488.054-.488.803.057 1.225.828 1.225.828.714 1.227 1.873.873 2.329.667.072-.519.279-.873.508-1.074-1.776-.203-3.644-.892-3.644-3.969 0-.877.312-1.594.824-2.156-.083-.203-.357-1.02.078-2.125 0 0 .672-.216 2.2.823a7.633 7.633 0 0 1 2.003-.27 7.65 7.65 0 0 1 2.003.271c1.527-1.039 2.198-.823 2.198-.823.436 1.106.162 1.922.08 2.125.513.562.822 1.279.822 2.156 0 3.085-1.87 3.764-3.652 3.963.287.248.543.738.543 1.487 0 1.074-.01 1.94-.01 2.203 0 .215.144.465.55.386A8.032 8.032 0 0 0 16 8.032C16 3.596 12.418 0 7.999 0z"></path>
  </symbol>
  <symbol xmlns="http://www.w3.org/2000/svg" viewBox="0 0 32 32" id="icons8-indeed">
    <path d="M 18.5 2 C 10.75 2 6 11.25 6 16 C 6 16 9.25 4 19 4 C 22.625 4 25 6 25 6 C 25 6 24 2 18.5 2 z M 17.5 7 A 3.5 3.5 0 1 0 17.5 14 A 3.5 3.5 0 1 0 17.5 7 z M 20 16 C 20 16 19 17 15 17 L 15 27.5 C 15 28.881 16.119 30 17.5 30 C 18.881 30 20 28.881 20 27.5 L 20 16 z"></path>
  </symbol>
  <symbol xmlns="http://www.w3.org/2000/svg" id="whatsapp" viewBox="0 0 16 16">
    <path d="M8.002 0h-.004C3.587 0 0 3.588 0 8a7.94 7.94 0 0 0 1.523 4.689l-.997 2.972 3.075-.983A7.93 7.93 0 0 0 8.002 16C12.413 16 16 12.411 16 8s-3.587-8-7.998-8zm4.655 11.297c-.193.545-.959.997-1.57 1.129-.418.089-.964.16-2.802-.602-2.351-.974-3.865-3.363-3.983-3.518-.113-.155-.95-1.265-.95-2.413s.583-1.707.818-1.947c.193-.197.512-.287.818-.287.099 0 .188.005.268.009.235.01.353.024.508.395.193.465.663 1.613.719 1.731.057.118.114.278.034.433-.075.16-.141.231-.259.367-.118.136-.23.24-.348.386-.108.127-.23.263-.094.498.136.23.606.997 1.298 1.613.893.795 1.617 1.049 1.876 1.157.193.08.423.061.564-.089.179-.193.4-.513.625-.828.16-.226.362-.254.574-.174.216.075 1.359.64 1.594.757.235.118.39.174.447.273.056.099.056.564-.137 1.11z"></path>
  </symbol>
  <symbol xmlns="http://www.w3.org/2000/svg" id="fiverr" viewBox="0 0 16 16">
    <g  stroke="#000" stroke-linecap="round" stroke-linejoin="round" stroke-miterlimit="10">
      <path d="M12.5 13.5v-8h-8v-1c0-1.103.897-2 2-2H7v-2h-.5c-2.206 0-4 1.794-4 4v1h-2v2h2v6h-2v2H6v-2H4.5v-6h6v6h-2v2H14v-2h-1.5z"></path>
      <circle cx="11.5" cy="1.5" r="1"></circle>
    </g>
  </symbol>
</svg>


